<svg xmlns="http://www.w3.org/2000/svg" xmlns:xlink="http://www.w3.org/1999/xlink" width="1000" zoomAndPan="magnify" viewBox="0 0 750 149.999998" height="200" preserveAspectRatio="xMidYMid meet" version="1.0"><defs><g/></defs><g fill="#00ef8b" fill-opacity="1"><g transform="translate(11.091802, 113.798652)"><g><path d="M 9.078125 -75.703125 L 66.734375 -75.703125 L 66.734375 -60.5625 L 25.734375 -60.5625 L 25.734375 -44.453125 L 61.859375 -44.453125 L 61.859375 -29.3125 L 25.734375 -29.3125 L 25.734375 0 L 9.078125 0 Z M 9.078125 -75.703125 "/></g></g></g><g fill="#00ef8b" fill-opacity="1"><g transform="translate(82.03203, 113.798652)"><g><path d="M 8.109375 -78.953125 L 24.546875 -78.953125 L 24.546875 0 L 8.109375 0 Z M 8.109375 -78.953125 "/></g></g></g><g fill="#00ef8b" fill-opacity="1"><g transform="translate(114.69049, 113.798652)"><g><path d="M 35.796875 1.296875 C 31.328125 1.296875 27.179688 0.519531 23.359375 -1.03125 C 19.535156 -2.582031 16.234375 -4.707031 13.453125 -7.40625 C 10.679688 -10.113281 8.503906 -13.285156 6.921875 -16.921875 C 5.335938 -20.566406 4.546875 -24.476562 4.546875 -28.65625 L 4.546875 -28.875 C 4.546875 -33.0625 5.335938 -36.972656 6.921875 -40.609375 C 8.503906 -44.253906 10.703125 -47.445312 13.515625 -50.1875 C 16.328125 -52.925781 19.644531 -55.085938 23.46875 -56.671875 C 27.289062 -58.253906 31.472656 -59.046875 36.015625 -59.046875 C 40.484375 -59.046875 44.628906 -58.269531 48.453125 -56.71875 C 52.273438 -55.175781 55.570312 -53.050781 58.34375 -50.34375 C 61.125 -47.644531 63.304688 -44.472656 64.890625 -40.828125 C 66.472656 -37.179688 67.265625 -33.269531 67.265625 -29.09375 L 67.265625 -28.875 C 67.265625 -24.695312 66.472656 -20.785156 64.890625 -17.140625 C 63.304688 -13.503906 61.109375 -10.316406 58.296875 -7.578125 C 55.484375 -4.835938 52.164062 -2.671875 48.34375 -1.078125 C 44.519531 0.503906 40.335938 1.296875 35.796875 1.296875 Z M 36.015625 -12.875 C 38.390625 -12.875 40.492188 -13.285156 42.328125 -14.109375 C 44.171875 -14.941406 45.742188 -16.078125 47.046875 -17.515625 C 48.347656 -18.960938 49.335938 -20.640625 50.015625 -22.546875 C 50.703125 -24.460938 51.046875 -26.5 51.046875 -28.65625 L 51.046875 -28.875 C 51.046875 -31.039062 50.6875 -33.078125 49.96875 -34.984375 C 49.25 -36.898438 48.203125 -38.597656 46.828125 -40.078125 C 45.460938 -41.554688 43.84375 -42.726562 41.96875 -43.59375 C 40.09375 -44.457031 38.035156 -44.890625 35.796875 -44.890625 C 33.421875 -44.890625 31.3125 -44.472656 29.46875 -43.640625 C 27.632812 -42.804688 26.066406 -41.671875 24.765625 -40.234375 C 23.472656 -38.796875 22.484375 -37.117188 21.796875 -35.203125 C 21.109375 -33.296875 20.765625 -31.257812 20.765625 -29.09375 L 20.765625 -28.875 C 20.765625 -26.71875 21.125 -24.679688 21.84375 -22.765625 C 22.5625 -20.859375 23.601562 -19.164062 24.96875 -17.6875 C 26.34375 -16.207031 27.953125 -15.035156 29.796875 -14.171875 C 31.640625 -13.304688 33.710938 -12.875 36.015625 -12.875 Z M 36.015625 -12.875 "/></g></g></g><g fill="#00ef8b" fill-opacity="1"><g transform="translate(186.495833, 113.798652)"><g><path d="M 2.59375 -57.96875 L 19.25 -57.96875 L 28.546875 -22.828125 L 39.484375 -58.1875 L 53.640625 -58.1875 L 64.671875 -22.71875 L 74.1875 -57.96875 L 90.53125 -57.96875 L 72.46875 0.4375 L 57.640625 0.4375 L 46.5 -35.15625 L 35.15625 0.4375 L 20.4375 0.4375 Z M 2.59375 -57.96875 "/></g></g></g><g fill="#ffffff" fill-opacity="1"><g transform="translate(279.615224, 113.798652)"><g><path d="M 44.5625 1.296875 C 39.007812 1.296875 33.851562 0.285156 29.09375 -1.734375 C 24.332031 -3.753906 20.222656 -6.507812 16.765625 -10 C 13.304688 -13.5 10.601562 -17.628906 8.65625 -22.390625 C 6.707031 -27.148438 5.734375 -32.234375 5.734375 -37.640625 L 5.734375 -37.859375 C 5.734375 -43.265625 6.707031 -48.328125 8.65625 -53.046875 C 10.601562 -57.773438 13.304688 -61.921875 16.765625 -65.484375 C 20.222656 -69.054688 24.367188 -71.867188 29.203125 -73.921875 C 34.035156 -75.972656 39.367188 -77 45.203125 -77 C 48.742188 -77 51.972656 -76.710938 54.890625 -76.140625 C 57.804688 -75.566406 60.453125 -74.773438 62.828125 -73.765625 C 65.210938 -72.753906 67.414062 -71.523438 69.4375 -70.078125 C 71.457031 -68.640625 73.332031 -67.054688 75.0625 -65.328125 L 64.46875 -53.109375 C 61.507812 -55.773438 58.492188 -57.863281 55.421875 -59.375 C 52.359375 -60.894531 48.914062 -61.65625 45.09375 -61.65625 C 41.925781 -61.65625 38.988281 -61.039062 36.28125 -59.8125 C 33.582031 -58.582031 31.257812 -56.882812 29.3125 -54.71875 C 27.363281 -52.5625 25.847656 -50.054688 24.765625 -47.203125 C 23.679688 -44.359375 23.140625 -41.316406 23.140625 -38.078125 L 23.140625 -37.859375 C 23.140625 -34.609375 23.679688 -31.539062 24.765625 -28.65625 C 25.847656 -25.769531 27.34375 -23.242188 29.25 -21.078125 C 31.164062 -18.921875 33.472656 -17.210938 36.171875 -15.953125 C 38.878906 -14.691406 41.851562 -14.0625 45.09375 -14.0625 C 49.425781 -14.0625 53.085938 -14.851562 56.078125 -16.4375 C 59.066406 -18.019531 62.039062 -20.179688 65 -22.921875 L 75.59375 -12.21875 C 73.65625 -10.125 71.640625 -8.25 69.546875 -6.59375 C 67.453125 -4.9375 65.160156 -3.515625 62.671875 -2.328125 C 60.179688 -1.140625 57.457031 -0.238281 54.5 0.375 C 51.550781 0.988281 48.238281 1.296875 44.5625 1.296875 Z M 44.5625 1.296875 "/></g></g></g><g fill="#ffffff" fill-opacity="1"><g transform="translate(359.422974, 113.798652)"><g><path d="M 35.796875 1.296875 C 31.328125 1.296875 27.179688 0.519531 23.359375 -1.03125 C 19.535156 -2.582031 16.234375 -4.707031 13.453125 -7.40625 C 10.679688 -10.113281 8.503906 -13.285156 6.921875 -16.921875 C 5.335938 -20.566406 4.546875 -24.476562 4.546875 -28.65625 L 4.546875 -28.875 C 4.546875 -33.0625 5.335938 -36.972656 6.921875 -40.609375 C 8.503906 -44.253906 10.703125 -47.445312 13.515625 -50.1875 C 16.328125 -52.925781 19.644531 -55.085938 23.46875 -56.671875 C 27.289062 -58.253906 31.472656 -59.046875 36.015625 -59.046875 C 40.484375 -59.046875 44.628906 -58.269531 48.453125 -56.71875 C 52.273438 -55.175781 55.570312 -53.050781 58.34375 -50.34375 C 61.125 -47.644531 63.304688 -44.472656 64.890625 -40.828125 C 66.472656 -37.179688 67.265625 -33.269531 67.265625 -29.09375 L 67.265625 -28.875 C 67.265625 -24.695312 66.472656 -20.785156 64.890625 -17.140625 C 63.304688 -13.503906 61.109375 -10.316406 58.296875 -7.578125 C 55.484375 -4.835938 52.164062 -2.671875 48.34375 -1.078125 C 44.519531 0.503906 40.335938 1.296875 35.796875 1.296875 Z M 36.015625 -12.875 C 38.390625 -12.875 40.492188 -13.285156 42.328125 -14.109375 C 44.171875 -14.941406 45.742188 -16.078125 47.046875 -17.515625 C 48.347656 -18.960938 49.335938 -20.640625 50.015625 -22.546875 C 50.703125 -24.460938 51.046875 -26.5 51.046875 -28.65625 L 51.046875 -28.875 C 51.046875 -31.039062 50.6875 -33.078125 49.96875 -34.984375 C 49.25 -36.898438 48.203125 -38.597656 46.828125 -40.078125 C 45.460938 -41.554688 43.84375 -42.726562 41.96875 -43.59375 C 40.09375 -44.457031 38.035156 -44.890625 35.796875 -44.890625 C 33.421875 -44.890625 31.3125 -44.472656 29.46875 -43.640625 C 27.632812 -42.804688 26.066406 -41.671875 24.765625 -40.234375 C 23.472656 -38.796875 22.484375 -37.117188 21.796875 -35.203125 C 21.109375 -33.296875 20.765625 -31.257812 20.765625 -29.09375 L 20.765625 -28.875 C 20.765625 -26.71875 21.125 -24.679688 21.84375 -22.765625 C 22.5625 -20.859375 23.601562 -19.164062 24.96875 -17.6875 C 26.34375 -16.207031 27.953125 -15.035156 29.796875 -14.171875 C 31.640625 -13.304688 33.710938 -12.875 36.015625 -12.875 Z M 36.015625 -12.875 "/></g></g></g><g fill="#ffffff" fill-opacity="1"><g transform="translate(431.228317, 113.798652)"><g><path d="M 7.359375 -57.96875 L 23.796875 -57.96875 L 23.796875 -49.75 C 24.734375 -50.976562 25.757812 -52.148438 26.875 -53.265625 C 27.988281 -54.378906 29.226562 -55.367188 30.59375 -56.234375 C 31.96875 -57.109375 33.484375 -57.796875 35.140625 -58.296875 C 36.804688 -58.796875 38.6875 -59.046875 40.78125 -59.046875 C 47.050781 -59.046875 51.894531 -57.132812 55.3125 -53.3125 C 58.738281 -49.5 60.453125 -44.238281 60.453125 -37.53125 L 60.453125 0 L 44.015625 0 L 44.015625 -32.34375 C 44.015625 -36.226562 43.148438 -39.160156 41.421875 -41.140625 C 39.691406 -43.128906 37.238281 -44.125 34.0625 -44.125 C 30.894531 -44.125 28.390625 -43.128906 26.546875 -41.140625 C 24.710938 -39.160156 23.796875 -36.226562 23.796875 -32.34375 L 23.796875 0 L 7.359375 0 Z M 7.359375 -57.96875 "/></g></g></g><g fill="#ffffff" fill-opacity="1"><g transform="translate(498.599899, 113.798652)"><g><path d="M 7.359375 -57.96875 L 23.796875 -57.96875 L 23.796875 -49.75 C 24.734375 -50.976562 25.757812 -52.148438 26.875 -53.265625 C 27.988281 -54.378906 29.226562 -55.367188 30.59375 -56.234375 C 31.96875 -57.109375 33.484375 -57.796875 35.140625 -58.296875 C 36.804688 -58.796875 38.6875 -59.046875 40.78125 -59.046875 C 47.050781 -59.046875 51.894531 -57.132812 55.3125 -53.3125 C 58.738281 -49.5 60.453125 -44.238281 60.453125 -37.53125 L 60.453125 0 L 44.015625 0 L 44.015625 -32.34375 C 44.015625 -36.226562 43.148438 -39.160156 41.421875 -41.140625 C 39.691406 -43.128906 37.238281 -44.125 34.0625 -44.125 C 30.894531 -44.125 28.390625 -43.128906 26.546875 -41.140625 C 24.710938 -39.160156 23.796875 -36.226562 23.796875 -32.34375 L 23.796875 0 L 7.359375 0 Z M 7.359375 -57.96875 "/></g></g></g><g fill="#ffffff" fill-opacity="1"><g transform="translate(565.971469, 113.798652)"><g><path d="M 34.828125 1.296875 C 30.503906 1.296875 26.484375 0.578125 22.765625 -0.859375 C 19.054688 -2.304688 15.847656 -4.363281 13.140625 -7.03125 C 10.429688 -9.695312 8.320312 -12.847656 6.8125 -16.484375 C 5.300781 -20.128906 4.546875 -24.1875 4.546875 -28.65625 L 4.546875 -28.875 C 4.546875 -32.988281 5.25 -36.882812 6.65625 -40.5625 C 8.0625 -44.238281 10.023438 -47.445312 12.546875 -50.1875 C 15.066406 -52.925781 18.078125 -55.085938 21.578125 -56.671875 C 25.078125 -58.253906 28.953125 -59.046875 33.203125 -59.046875 C 38.035156 -59.046875 42.21875 -58.179688 45.75 -56.453125 C 49.28125 -54.722656 52.21875 -52.394531 54.5625 -49.46875 C 56.90625 -46.550781 58.632812 -43.203125 59.75 -39.421875 C 60.875 -35.640625 61.4375 -31.691406 61.4375 -27.578125 C 61.4375 -26.929688 61.414062 -26.242188 61.375 -25.515625 C 61.34375 -24.796875 61.289062 -24.039062 61.21875 -23.25 L 20.875 -23.25 C 21.664062 -19.5 23.304688 -16.664062 25.796875 -14.75 C 28.285156 -12.84375 31.367188 -11.890625 35.046875 -11.890625 C 37.785156 -11.890625 40.234375 -12.359375 42.390625 -13.296875 C 44.554688 -14.234375 46.796875 -15.75 49.109375 -17.84375 L 58.515625 -9.515625 C 55.773438 -6.128906 52.457031 -3.476562 48.5625 -1.5625 C 44.664062 0.34375 40.085938 1.296875 34.828125 1.296875 Z M 45.421875 -33.53125 C 44.921875 -37.207031 43.625 -40.179688 41.53125 -42.453125 C 39.4375 -44.722656 36.660156 -45.859375 33.203125 -45.859375 C 29.742188 -45.859375 26.945312 -44.738281 24.8125 -42.5 C 22.6875 -40.269531 21.300781 -37.28125 20.65625 -33.53125 Z M 45.421875 -33.53125 "/></g></g></g><g fill="#ffffff" fill-opacity="1"><g transform="translate(632.261642, 113.798652)"><g><path d="M 34.71875 1.296875 C 30.394531 1.296875 26.375 0.503906 22.65625 -1.078125 C 18.945312 -2.671875 15.753906 -4.816406 13.078125 -7.515625 C 10.410156 -10.222656 8.320312 -13.394531 6.8125 -17.03125 C 5.300781 -20.675781 4.546875 -24.550781 4.546875 -28.65625 L 4.546875 -28.875 C 4.546875 -32.988281 5.300781 -36.882812 6.8125 -40.5625 C 8.320312 -44.238281 10.410156 -47.445312 13.078125 -50.1875 C 15.753906 -52.925781 18.945312 -55.085938 22.65625 -56.671875 C 26.375 -58.253906 30.46875 -59.046875 34.9375 -59.046875 C 40.414062 -59.046875 44.957031 -58.179688 48.5625 -56.453125 C 52.164062 -54.722656 55.335938 -52.34375 58.078125 -49.3125 L 48.015625 -38.5 C 46.140625 -40.445312 44.210938 -42 42.234375 -43.15625 C 40.253906 -44.3125 37.785156 -44.890625 34.828125 -44.890625 C 32.734375 -44.890625 30.835938 -44.472656 29.140625 -43.640625 C 27.453125 -42.804688 25.976562 -41.671875 24.71875 -40.234375 C 23.457031 -38.796875 22.484375 -37.117188 21.796875 -35.203125 C 21.109375 -33.296875 20.765625 -31.257812 20.765625 -29.09375 L 20.765625 -28.875 C 20.765625 -26.644531 21.109375 -24.554688 21.796875 -22.609375 C 22.484375 -20.660156 23.472656 -18.960938 24.765625 -17.515625 C 26.066406 -16.078125 27.617188 -14.941406 29.421875 -14.109375 C 31.222656 -13.285156 33.238281 -12.875 35.46875 -12.875 C 38.207031 -12.875 40.601562 -13.429688 42.65625 -14.546875 C 44.71875 -15.660156 46.757812 -17.15625 48.78125 -19.03125 L 58.40625 -9.296875 C 55.59375 -6.203125 52.382812 -3.660156 48.78125 -1.671875 C 45.175781 0.304688 40.488281 1.296875 34.71875 1.296875 Z M 34.71875 1.296875 "/></g></g></g><g fill="#ffffff" fill-opacity="1"><g transform="translate(694.00993, 113.798652)"><g><path d="M 26.9375 0.96875 C 24.40625 0.96875 22.113281 0.695312 20.0625 0.15625 C 18.007812 -0.382812 16.242188 -1.335938 14.765625 -2.703125 C 13.285156 -4.078125 12.128906 -5.863281 11.296875 -8.0625 C 10.472656 -10.257812 10.0625 -13.050781 10.0625 -16.4375 L 10.0625 -43.90625 L 3.140625 -43.90625 L 3.140625 -57.96875 L 10.0625 -57.96875 L 10.0625 -72.796875 L 26.5 -72.796875 L 26.5 -57.96875 L 40.125 -57.96875 L 40.125 -43.90625 L 26.5 -43.90625 L 26.5 -19.140625 C 26.5 -15.390625 28.265625 -13.515625 31.796875 -13.515625 C 34.679688 -13.515625 37.382812 -14.203125 39.90625 -15.578125 L 39.90625 -2.375 C 38.175781 -1.363281 36.265625 -0.554688 34.171875 0.046875 C 32.085938 0.660156 29.675781 0.96875 26.9375 0.96875 Z M 26.9375 0.96875 "/></g></g></g></svg>