<?xml version="1.0" standalone="no"?>
<!DOCTYPE svg PUBLIC "-//W3C//DTD SVG 20010904//EN"
 "http://www.w3.org/TR/2001/REC-SVG-20010904/DTD/svg10.dtd">
<svg version="1.0" xmlns="http://www.w3.org/2000/svg"
 width="209.000000pt" height="92.000000pt" viewBox="0 0 209.000000 92.000000"
 preserveAspectRatio="xMidYMid meet">

<g transform="translate(0.000000,92.000000) scale(0.100000,-0.100000)"
fill="#FFFFFF" stroke="none">
<path d="M846 752 c-3 -5 31 -70 74 -145 44 -74 80 -141 80 -149 -1 -7 -38
-76 -85 -153 -46 -77 -80 -144 -75 -148 4 -5 23 -7 41 -5 32 3 38 10 103 125
38 67 73 120 76 118 4 -3 36 -55 70 -117 35 -62 68 -116 74 -120 19 -13 76 -9
76 5 0 6 -38 77 -84 156 l-84 143 84 142 c46 77 79 145 75 149 -5 5 -23 7 -41
5 -30 -3 -38 -12 -100 -121 l-68 -118 -69 118 c-66 114 -70 118 -105 121 -20
2 -39 -1 -42 -6z" fill="#00ef8b"/>
<path d="M197 623 c-4 -3 -7 -71 -7 -150 0 -136 1 -143 20 -143 18 0 20 8 22
121 l3 121 65 -116 c61 -109 86 -136 110 -121 6 4 10 64 10 151 0 137 -1 144
-20 144 -18 0 -20 -8 -22 -116 l-3 -117 -54 99 c-30 54 -61 107 -69 117 -15
17 -43 23 -55 10z"/>
<path d="M615 617 c-3 -7 -4 -74 -3 -148 l3 -134 83 -3 c68 -2 82 0 82 13 0
12 -13 15 -65 15 l-65 0 0 55 0 55 55 0 c42 0 55 3 55 15 0 12 -13 15 -55 15
l-55 0 0 50 0 50 66 0 c48 0 65 3 62 13 -7 18 -157 22 -163 4z"/>
<path d="M1340 510 c0 -124 9 -153 55 -175 41 -19 66 -19 110 -1 52 22 65 58
65 181 0 98 -1 105 -20 105 -19 0 -20 -7 -20 -110 0 -104 -1 -112 -25 -135
-31 -32 -69 -32 -100 0 -24 23 -25 31 -25 135 0 103 -1 110 -20 110 -19 0 -20
-7 -20 -110z"/>
<path d="M1800 613 c-31 -12 -50 -37 -50 -65 0 -44 14 -62 70 -88 61 -29 76
-63 40 -92 -27 -22 -40 -22 -85 -4 -33 14 -35 14 -35 -4 0 -12 12 -22 36 -30
73 -24 144 12 144 74 0 37 -15 54 -77 85 -56 28 -69 52 -44 82 17 22 22 23 60
13 43 -12 55 -7 42 15 -9 14 -77 24 -101 14z"/>
</g>
</svg>
